*******************************************************************************
              Dolphin Tale.2011.720p.BRRip.Xvid.AC3-SiNiSTER
*******************************************************************************

-------------------------------------------------------------------------------
                              General Information
-------------------------------------------------------------------------------

 
http://sceneunderground.org/static/73452a94a520d6fdf17adfb28bba4395.jpg


Format                           : AVI
Format/Info                      : Audio Video Interleave
Format profile                   : OpenDML
File size                        : 2.82 GiB
Duration                         : 1h 52mn
Overall bit rate                 : 3 582 Kbps
Writing library                  : MPlayer

Video
ID                               : 0
Format                           : MPEG-4 Visual
Format profile                   : Advanced Simple@L5
Format settings, BVOP            : Yes
Format settings, QPel            : No
Format settings, GMC             : No warppoints
Format settings, Matrix          : Default (H.263)
Codec ID                         : XVID
Codec ID/Hint                    : XviD
Duration                         : 1h 52mn
Bit rate                         : 3 001 Kbps
Width                            : 1 280 pixels
Height                           : 720 pixels
Display aspect ratio             : 16:9
Frame rate                       : 23.976 fps
Color space                      : YUV
Chroma subsampling               : 4:2:0
Bit depth                        : 8 bits
Scan type                        : Progressive
Bits/(Pixel*Frame)               : 0.136
Stream size                      : 2.36 GiB (84%)
Writing library                  : XviD 1.2.1 (UTC 2008-12-04)

Audio
ID                               : 1
Format                           : AC-3
Format/Info                      : Audio Coding 3
Mode extension                   : CM (complete main)
Codec ID                         : 2000
Duration                         : 1h 52mn
Bit rate mode                    : Constant
Bit rate                         : 576 Kbps
Channel(s)                       : 6 channels
Channel positions                : Front: L C R, Side: L R, LFE
Sampling rate                    : 48.0 KHz
Bit depth                        : 16 bits
Stream size                      : 464 MiB (16%)
Alignment                        : Split accross interleaves
Interleave, duration             : 500 ms (11.99 video frames)
Interleave, preload duration     : 500 ms





Video Source: Dolphin.Tale.720p.BluRay.x264-REFiNED.....thanks    
Audio Source: Dolphin.Tale.720p.BluRay.x264-REFiNED.....thanks


Greets:
DarkScene,HDScene,Noir,CrEwSaDe,blackjesus,ViSiON,HDLiTE,BTVRG,Twentyforty,UnKnOwN,
FLAWL3SS,Rx,Relizlab,MiSTERE,ILLUMiNATI,SAFCuk009,HiVE-CM8..... and everybody else we 
respect.. u know who u are
  
-------------------------------------------------------------------------------
                               Post Information
-------------------------------------------------------------------------------
Encoded by...........: SiNiSTER
 
Have sumthing to offer..looking for suppliers... cammers,cams,screeners, audio
supplier.. and any pre retail DVD/BR any RC...if u can provide any email us at
sinister@hushmail.me
-------------------------------------------------------------------------------
                                 Release Notes
-------------------------------------------------------------------------------


source was very nice.. made a script to denoise and slightly adjust RGB and 
sharpen.. then converted DTS to AC3 and muxed it back to my encode..enjoy

subtitles included in subs folder
-------------------------------------------------------------------------------
                                 ScreenShots
------------------------------------------------------------------------- 
http://sceneunderground.org/static/c66c09db98b01dede97b0cf4c46a2863.png 
http://sceneunderground.org/static/924bc91e28f304949e17a6b0bc7cdc0b.png 
http://sceneunderground.org/static/eb97ef1b5544d89b2117e155d5f5a351.png 
http://sceneunderground.org/static/5c2e98114c03d4443e40d527b907d97d.png 
http://sceneunderground.org/static/4b187f175ad56c2fd892cdbb19f52e3e.jpg


-------------------------------------------------------------------------------

[img]http://leetleech.org/images/33506450373550172140.gif[/img]


-------------------------------------------------------------------------------
Generated with Cool NFO Creator - http://fly.to/coolbeans
-------------------------------------------------------------------------------
